<svg width="32" height="32" viewBox="0 0 32 32" fill="none" xmlns="http://www.w3.org/2000/svg">
<path d="M16.1886 8.78588C15.8766 8.9542 15.6821 9.27425 15.6821 9.62237V15.043H4.97906C4.43862 15.043 4 15.4714 4 15.9993C4 16.5272 4.43862 16.9557 4.97906 16.9557H15.6821V22.3763C15.6821 22.7256 15.8766 23.0457 16.1886 23.2128C16.5006 23.3823 16.8818 23.3709 17.1834 23.186L27.5431 16.809C27.8277 16.6331 28 16.3283 28 15.9993C28 15.6703 27.8277 15.3656 27.5431 15.1896L17.1834 8.81266C17.0241 8.71575 16.8426 8.66602 16.6612 8.66602C16.4993 8.66602 16.3361 8.70682 16.1886 8.78588Z" fill="#252B42"/>
</svg>
