<svg width="540" height="492" viewBox="0 0 540 492" fill="none" xmlns="http://www.w3.org/2000/svg">
<g opacity="0.2">
<path d="M475.446 189.69C476.578 193.27 476.652 197.848 475.555 204.224C472.477 221.186 453.776 242.24 433.991 264.478C423.133 276.714 411.896 289.35 403.234 301.432C386.558 320.02 379.413 346.562 372.476 372.255C367.418 391.026 362.618 408.754 354.445 423.534L354.427 423.565C347.974 434.738 340.322 441.057 331.051 442.879C312.959 446.441 291.353 432.244 266.335 415.778L263.928 414.202C245.314 402.012 220.804 386.975 184.49 365.399L181.492 363.549C149.846 344.048 110.458 319.762 79.7706 283.515C12.6911 212.234 22.3413 133.756 50.0366 103.177C83.3028 70.253 127.103 62.1095 217.518 72.0075C311.814 82.4635 398.575 134.371 431.492 156.205C443.047 165.592 452.358 170.989 459.155 174.913C467.75 179.911 473.378 183.156 475.446 189.69ZM351.269 422.01C359.265 407.556 364.006 389.996 369.039 371.412C376.049 345.418 383.304 318.515 400.359 299.527C409.014 287.422 420.313 274.719 431.216 262.446C450.704 240.511 469.116 219.783 472.064 203.652C474.752 187.763 470.353 185.21 457.291 177.624C450.385 173.622 440.906 168.135 429.275 158.689C396.726 137.129 310.613 85.5858 217.159 75.2158C128.048 65.4496 85.0079 73.3365 52.6853 105.341C25.8292 135.026 16.6207 211.618 82.4304 281.546C112.832 317.422 151.943 341.541 183.352 360.917L186.343 362.742C222.691 384.337 247.234 399.391 265.89 411.624L268.297 413.2C292.61 429.212 313.613 443.009 330.148 439.761C338.412 438.125 345.301 432.321 351.269 422.01Z" fill="#A7CEFC" fill-opacity="0.8"/>
<path d="M453.597 200.059C455.162 205.007 455.096 210.649 454.322 218.574L454.315 218.73C451.149 234.341 436.421 249.578 420.846 265.685C410.191 276.685 399.209 288.071 390.5 300.703C375.707 319.104 366.301 340.081 357.201 360.342C351.104 373.959 345.331 386.829 338.159 398.557L338.003 398.774C315.858 424.429 299.117 413.712 268.711 394.288C265.407 392.176 261.926 389.95 258.224 387.647C251.713 382.935 244.532 377.967 236.916 372.689C203.054 349.253 156.681 317.124 111.445 267.048C60.852 204.736 64.7445 146.473 91.0253 116.334C118.7 85.816 163.259 84.6408 241.05 93.2938C320.383 104.164 381.997 143.596 415.092 164.786L418.783 167.143C441.311 183.389 450.558 190.451 453.597 200.059ZM450.81 218.11C452.887 196.484 449.847 193.612 416.755 169.686L413.165 167.382C380.32 146.365 319.168 107.238 240.735 96.465C164.248 87.9437 120.487 88.9826 93.833 118.383C68.3945 147.549 64.8182 204.241 114.224 265.103C159.121 314.82 205.303 346.788 239.004 370.158C246.62 375.437 253.801 380.404 260.271 385.075C263.872 387.324 267.352 389.55 270.683 391.656C301.122 411.097 315.045 420.001 335.14 396.816C342.175 385.275 347.874 372.526 353.93 359.047C363.082 338.594 372.58 317.466 387.555 298.842C396.338 286.089 407.427 274.6 418.164 263.503C433.379 247.765 447.766 232.867 450.81 218.11Z" fill="#A7CEFC" fill-opacity="0.8"/>
<path d="M435.456 208.839C437.455 215.156 436.855 221.593 434.989 229.877C430.863 243.958 417.443 257.647 403.266 272.133C394.824 280.727 386.119 289.641 378.59 299.259C366.369 313.103 356.993 328.317 347.898 343C340.438 355.053 333.411 366.436 325.463 375.972L325.337 376.105C303.448 396.794 286.378 384.763 255.376 362.904L255.016 362.653L249.696 358.512C219.49 334.917 178.112 302.599 140.139 253.918C98.1644 195.781 107.781 150.215 128.726 128.845C151.059 106.013 189.255 101.328 260.562 112.664C310.516 121.39 359.848 143.216 407.179 177.513C424.41 191.029 432.6 199.809 435.456 208.839ZM322.656 373.923C330.433 364.557 337.412 353.288 344.771 341.362C353.915 326.565 363.399 311.248 375.719 297.277C383.278 287.574 392.08 278.612 400.585 269.951C414.517 255.755 427.659 242.338 431.554 229.035C435.848 210.166 433.044 201.924 404.983 179.966C358.135 146.045 309.353 124.45 260.023 115.836C190.077 104.721 152.797 109.113 131.355 131.039C109.627 153.213 104.787 199.253 142.985 252.19C180.665 300.475 221.826 332.639 251.908 356.108L257.445 360.404C288.665 382.418 302.958 392.497 322.656 373.923Z" fill="#A7CEFC" fill-opacity="0.8"/>
<path d="M418.416 215.231C420.649 222.291 420.11 229.539 417.283 238.151L417.273 238.205C412.5 251.3 399.738 263.955 386.256 277.347C380.002 283.542 373.566 289.96 367.616 296.676C358.694 305.872 350.835 315.592 343.266 324.986C333.961 336.517 325.165 347.438 315.804 355.422C295.422 370.31 278.867 359.451 253.961 339.826C229.791 319.253 194.415 287.001 165.943 243.963C142.072 202.086 139.529 167.106 158.728 145.376C179.402 121.93 222.22 116.465 276.213 130.375C338.744 143.538 383.581 177.072 395.817 187.039C408.401 197.749 415.606 206.347 418.416 215.231ZM413.908 237.14C419.16 221.042 417.449 209.783 393.479 189.395C381.434 179.59 337.182 146.486 275.435 133.499C222.788 119.943 181.278 125.023 161.516 147.454C143.23 168.17 145.911 201.904 169.036 242.486C197.226 285.075 232.336 317.106 256.307 337.493C281.929 357.698 295.939 365.828 313.495 352.999C322.518 345.275 331.215 334.481 340.438 323.046C348.07 313.586 355.94 303.812 364.932 294.573C370.874 287.833 377.389 281.397 383.662 275.172C396.85 262.004 409.352 249.591 413.908 237.14Z" fill="#A7CEFC" fill-opacity="0.8"/>
<path d="M402.575 220.286C404.945 227.778 404.333 235.326 401.013 243.796L400.891 244.031C379.424 278.524 320.665 327.165 309.118 336.567L308.835 336.737C291.011 346.146 276.174 337.876 255.037 319.351C235.946 301.712 209.063 273.086 189.254 236.782C172.151 203.092 171.922 174.896 188.601 157.346C207.134 137.863 243.426 133.934 288.172 146.537C330.747 156.891 365.911 178.639 384.602 195.547C394.197 204.432 400.061 212.339 402.575 220.286ZM397.744 242.502C404.026 226.291 399.795 214.156 382.148 197.802C363.805 181.199 329.245 159.85 287.3 149.632C244.495 137.578 208.634 141.277 191.299 159.497C175.541 176.056 175.923 203.055 192.427 235.468C212.013 271.333 238.625 299.636 257.491 317.096C277.706 334.832 290.923 342.322 306.883 334.023C340.053 307.016 381.297 268.846 397.744 242.502Z" fill="#A7CEFC" fill-opacity="0.8"/>
<path d="M387.966 225.067C390.503 233.086 389.802 240.707 385.856 247.286C370.361 273.534 330.564 306.435 304.511 319.511C298.35 322.097 291.532 322.078 284.219 319.518C261.679 311.618 234.063 278.987 210.351 232.201C198.76 205.393 200.284 183.003 214.638 169.096C230.903 153.347 260.938 150.555 297.007 161.434C342.852 175.841 376.252 198.133 386.415 221.047C387.038 222.396 387.549 223.746 387.966 225.067ZM209.756 220.836C210.804 224.149 212.072 227.54 213.587 231.001C236.854 276.91 263.713 308.92 285.389 316.482C291.82 318.734 297.69 318.77 302.861 316.598C328.378 303.777 367.539 271.439 382.758 245.642C386.825 238.828 386.971 230.693 383.174 222.145C373.404 200.119 340.818 178.539 296.001 164.457C261.793 154.146 232.354 156.694 217.247 171.319C205.684 182.53 203.126 199.876 209.756 220.836Z" fill="#A7CEFC" fill-opacity="0.8"/>
<path d="M373.423 227.644C375.777 235.087 375.241 242.256 371.798 248.562C359.596 271.042 326.926 296.872 301.9 303.798L301.848 303.811C278.538 309.43 248.065 278.22 229.442 229.619C222.249 208.74 224.938 191.364 237.074 180.637C250.981 168.333 275.057 166.377 303.15 175.265C337.383 186.369 363.019 204.323 371.746 223.318C372.407 224.788 372.975 226.228 373.423 227.644ZM300.808 300.702C325.078 293.954 356.785 268.892 368.625 247.039C372.264 240.377 372.215 232.598 368.502 224.495C360.161 206.363 335.331 189.097 302.066 178.306C275.281 169.833 252.472 171.542 239.531 183C228.387 192.873 225.945 209.082 232.743 228.712C250.431 274.799 279.709 305.774 300.808 300.702Z" fill="#A7CEFC" fill-opacity="0.8"/>
<path d="M359.485 229.716C361.543 236.222 361.216 242.542 358.444 248.225C348.803 268.168 322.449 286.938 300.872 289.26C280.061 291.169 256.296 264.597 246.761 228.868C242.821 213.131 246.145 200.069 256.083 192.052C267.474 182.869 286.007 181.47 306.907 188.26C331.403 196.318 350.363 210.091 357.632 225.096C358.401 226.643 358.999 228.179 359.485 229.716ZM251.791 233.694C261.709 265.05 282.412 287.7 300.388 286.046C320.53 283.882 346.158 265.566 355.231 246.841C358.213 240.67 357.935 233.589 354.429 226.315C347.557 212.119 329.377 199.039 305.815 191.277C286.164 184.89 268.905 186.066 258.451 194.487C249.494 201.705 246.559 213.695 250.172 228.22C250.697 230.057 251.222 231.894 251.791 233.694Z" fill="#A7CEFC" fill-opacity="0.8"/>
<path d="M346.065 231.489C347.72 236.724 347.581 241.865 345.633 246.606C338.86 263.035 318.903 276.068 301.143 275.659C283.542 275.135 266.646 254.864 262.68 229.561C261.003 218.321 264.333 208.998 272.063 203.307C280.816 196.86 294.184 195.879 308.741 200.602C325.376 206.049 338.257 215.579 344.061 226.75C344.891 228.309 345.564 229.905 346.065 231.489ZM301.133 272.437C317.259 272.818 336.129 260.428 342.335 245.396C344.541 240.052 344.045 234.055 340.908 228.035C335.572 217.811 323.148 208.664 307.668 203.59C294.3 199.257 282.169 200.076 274.342 205.815C267.563 210.791 264.671 219.108 266.182 229.201C269.817 252.569 285.51 271.963 301.133 272.437Z" fill="#A7CEFC" fill-opacity="0.8"/>
<path d="M333.036 233.102C334.183 236.728 334.274 240.473 333.055 244.062C329.078 256.041 315.257 264.456 302.272 262.844C289.333 261.197 278.168 247.082 277.396 231.346C277.031 224.079 279.861 218.046 285.311 214.363C291.32 210.316 299.959 209.623 308.983 212.451C321.379 216.369 330.287 224.41 333.036 233.102ZM329.705 243.045C333.138 232.717 323.398 220.357 307.951 215.481C300.049 213.008 292.562 213.533 287.483 216.973C282.954 220.026 280.612 225.119 280.918 231.316C281.627 245.519 291.369 258.24 302.639 259.662C314.048 261.077 326.184 253.627 329.705 243.045Z" fill="#A7CEFC" fill-opacity="0.8"/>
<path d="M320.319 234.887C320.942 236.856 321.054 238.893 320.564 240.892C318.889 247.737 311.437 252.098 303.923 250.591C296.503 249.113 290.793 241.608 291.213 233.897C291.413 230.187 293.18 227.087 296.23 225.208C299.44 223.213 303.79 222.782 308.145 224.053C314.302 225.88 318.807 230.108 320.319 234.887ZM295.341 238.705C296.716 243.051 300.285 246.623 304.597 247.491C310.25 248.61 315.882 245.323 317.127 240.128C318.405 234.95 313.924 229.117 307.162 227.149C303.793 226.162 300.656 226.436 298.268 227.927C296.111 229.261 294.854 231.492 294.705 234.21C294.657 235.744 294.886 237.264 295.341 238.705Z" fill="#A7CEFC" fill-opacity="0.8"/>
</g>
</svg>
