<svg width="32" height="32" viewBox="0 0 32 32" fill="none" xmlns="http://www.w3.org/2000/svg">
<path d="M16.0007 28.6673C13.7478 28.6673 11.9068 28.3442 10.4777 27.698C9.04854 27.052 8.33398 26.217 8.33398 25.193C8.33398 24.7879 8.47121 24.4075 8.74565 24.052C9.01987 23.6964 9.40998 23.3759 9.91598 23.0903C10.1502 22.9365 10.4058 22.884 10.6827 22.9327C10.9595 22.9813 11.175 23.1228 11.329 23.357C11.4828 23.5912 11.5298 23.8447 11.47 24.1173C11.4102 24.39 11.2632 24.6032 11.029 24.757C10.8837 24.8083 10.7448 24.8724 10.6123 24.9493C10.4797 25.0262 10.4005 25.1031 10.375 25.18C10.5954 25.5784 11.2514 25.9259 12.343 26.2223C13.4343 26.519 14.6535 26.6673 16.0007 26.6673C17.3478 26.6673 18.567 26.519 19.6583 26.2223C20.7499 25.9259 21.4059 25.5784 21.6263 25.18C21.6008 25.1031 21.5217 25.0262 21.389 24.9493C21.2565 24.8724 21.1177 24.8083 20.9723 24.757C20.7381 24.6032 20.5911 24.39 20.5313 24.1173C20.4715 23.8447 20.5185 23.5912 20.6723 23.357C20.8263 23.1228 21.0418 22.9813 21.3187 22.9327C21.5955 22.884 21.8511 22.9365 22.0853 23.0903C22.5913 23.3759 22.9814 23.6964 23.2557 24.052C23.5301 24.4075 23.6673 24.7879 23.6673 25.193C23.6673 26.217 22.9528 27.052 21.5237 27.698C20.0945 28.3442 18.2535 28.6673 16.0007 28.6673ZM16.034 22.1673C18.2424 20.4938 19.9001 18.8361 21.007 17.1943C22.1139 15.5523 22.6673 13.922 22.6673 12.3033C22.6673 10.0024 21.9472 8.26565 20.507 7.09299C19.0668 5.92032 17.5647 5.33398 16.0007 5.33398C14.4451 5.33398 12.9451 5.92032 11.5007 7.09299C10.0562 8.26565 9.33398 10.0024 9.33398 12.3033C9.33398 13.8178 9.88054 15.387 10.9737 17.011C12.0668 18.635 13.7535 20.3538 16.034 22.1673ZM16.0007 24.0853C15.7595 24.0853 15.5185 24.043 15.2777 23.9583C15.0365 23.8737 14.8134 23.751 14.6083 23.5903C12.1657 21.6212 10.3427 19.6999 9.13932 17.8263C7.93576 15.9528 7.33398 14.1118 7.33398 12.3033C7.33398 10.8195 7.59598 9.51954 8.11998 8.40332C8.64398 7.2871 9.32043 6.35243 10.1493 5.59932C10.9784 4.84643 11.908 4.28065 12.938 3.90198C13.9678 3.52332 14.9887 3.33398 16.0007 3.33398C17.0127 3.33398 18.0335 3.52332 19.0633 3.90198C20.0933 4.28065 21.0229 4.84643 21.852 5.59932C22.6809 6.35243 23.3573 7.2871 23.8813 8.40332C24.4053 9.51954 24.6673 10.8195 24.6673 12.3033C24.6673 14.1118 24.0655 15.9528 22.862 17.8263C21.6587 19.6999 19.8357 21.6212 17.393 23.5903C17.1879 23.751 16.9648 23.8737 16.7237 23.9583C16.4828 24.043 16.2418 24.0853 16.0007 24.0853ZM16.0007 14.5263C16.6655 14.5263 17.2334 14.293 17.7043 13.8263C18.1754 13.3597 18.411 12.7895 18.411 12.116C18.411 11.4511 18.1754 10.8832 17.7043 10.4123C17.2334 9.94121 16.6655 9.70565 16.0007 9.70565C15.3442 9.70565 14.7784 9.94121 14.3033 10.4123C13.828 10.8832 13.5903 11.4511 13.5903 12.116C13.5903 12.7895 13.828 13.3597 14.3033 13.8263C14.7784 14.293 15.3442 14.5263 16.0007 14.5263Z" fill="white"/>
</svg>
