<svg width="92" height="40" viewBox="0 0 92 40" fill="none" xmlns="http://www.w3.org/2000/svg">
<path d="M0.48 32L9.44 9.408H13.984L22.848 32H17.536L10.752 13.248H12.576L5.696 32H0.48ZM5.568 27.904V23.808H17.888V27.904H5.568ZM25.0405 32V16.448H29.9365V32H25.0405ZM29.9365 23.456L27.8885 21.856C28.2938 20.0427 28.9765 18.6347 29.9365 17.632C30.8965 16.6293 32.2298 16.128 33.9365 16.128C34.6832 16.128 35.3338 16.2453 35.8885 16.48C36.4645 16.6933 36.9658 17.0347 37.3925 17.504L34.4805 21.184C34.2672 20.9493 34.0005 20.768 33.6805 20.64C33.3605 20.512 32.9978 20.448 32.5925 20.448C31.7818 20.448 31.1312 20.704 30.6405 21.216C30.1712 21.7067 29.9365 22.4533 29.9365 23.456ZM45.6088 32.352C44.1794 32.352 42.9101 32.064 41.8008 31.488C40.7128 30.8907 39.8594 30.08 39.2408 29.056C38.6221 28.0107 38.3128 26.816 38.3128 25.472V16.448H43.2088V25.408C43.2088 25.9413 43.2941 26.4 43.4648 26.784C43.6568 27.168 43.9341 27.4667 44.2968 27.68C44.6594 27.8933 45.0968 28 45.6088 28C46.3341 28 46.9101 27.776 47.3368 27.328C47.7634 26.8587 47.9768 26.2187 47.9768 25.408V16.448H52.8728V25.44C52.8728 26.8053 52.5634 28.0107 51.9448 29.056C51.3261 30.08 50.4728 30.8907 49.3848 31.488C48.2968 32.064 47.0381 32.352 45.6088 32.352ZM66.2188 32V23.136C66.2188 22.3253 65.9628 21.6747 65.4508 21.184C64.9601 20.672 64.3308 20.416 63.5628 20.416C63.0294 20.416 62.5601 20.5333 62.1548 20.768C61.7494 20.9813 61.4294 21.3013 61.1948 21.728C60.9601 22.1333 60.8428 22.6027 60.8428 23.136L58.9548 22.208C58.9548 20.992 59.2214 19.9253 59.7548 19.008C60.2881 18.0907 61.0241 17.3867 61.9628 16.896C62.9228 16.384 64.0001 16.128 65.1948 16.128C66.3468 16.128 67.3601 16.4053 68.2348 16.96C69.1308 17.4933 69.8348 18.208 70.3468 19.104C70.8588 20 71.1147 20.9813 71.1147 22.048V32H66.2188ZM55.9468 32V16.448H60.8428V32H55.9468ZM80.7552 32.32C79.3259 32.32 78.0459 31.968 76.9153 31.264C75.8059 30.56 74.9206 29.6 74.2593 28.384C73.6193 27.168 73.2993 25.7813 73.2993 24.224C73.2993 22.6667 73.6193 21.28 74.2593 20.064C74.9206 18.848 75.8059 17.888 76.9153 17.184C78.0459 16.48 79.3259 16.128 80.7552 16.128C81.8006 16.128 82.7393 16.3307 83.5713 16.736C84.4246 17.1413 85.1179 17.7067 85.6513 18.432C86.1846 19.136 86.4833 19.9467 86.5473 20.864V27.584C86.4833 28.5013 86.1846 29.3227 85.6513 30.048C85.1393 30.752 84.4566 31.3067 83.6033 31.712C82.7499 32.1173 81.8006 32.32 80.7552 32.32ZM81.7473 27.904C82.7926 27.904 83.6353 27.5627 84.2753 26.88C84.9153 26.176 85.2353 25.2907 85.2353 24.224C85.2353 23.4987 85.0859 22.8587 84.7873 22.304C84.5099 21.7493 84.1046 21.3227 83.5713 21.024C83.0593 20.704 82.4619 20.544 81.7793 20.544C81.0966 20.544 80.4886 20.704 79.9553 21.024C79.4433 21.3227 79.0273 21.7493 78.7073 22.304C78.4086 22.8587 78.2593 23.4987 78.2593 24.224C78.2593 24.928 78.4086 25.5573 78.7073 26.112C79.0059 26.6667 79.4219 27.104 79.9553 27.424C80.4886 27.744 81.0859 27.904 81.7473 27.904ZM85.0433 32V27.808L85.7793 24.032L85.0433 20.256V16.448H89.8433V32H85.0433Z" fill="white"/>
<circle cx="58" cy="10" r="3" fill="#06A956"/>
<circle cx="65" cy="3" r="2" fill="#06A956"/>
</svg>
