<svg width="115" height="50" viewBox="0 0 115 50" fill="none" xmlns="http://www.w3.org/2000/svg">
<path d="M0.6 40L11.8 11.76H17.48L28.56 40H21.92L13.44 16.56H15.72L7.12 40H0.6ZM6.96 34.88V29.76H22.36V34.88H6.96ZM31.3006 40V20.56H37.4206V40H31.3006ZM37.4206 29.32L34.8606 27.32C35.3673 25.0533 36.2206 23.2933 37.4206 22.04C38.6206 20.7867 40.2873 20.16 42.4206 20.16C43.354 20.16 44.1673 20.3067 44.8606 20.6C45.5806 20.8667 46.2073 21.2933 46.7406 21.88L43.1006 26.48C42.834 26.1867 42.5006 25.96 42.1006 25.8C41.7006 25.64 41.2473 25.56 40.7406 25.56C39.7273 25.56 38.914 25.88 38.3006 26.52C37.714 27.1333 37.4206 28.0667 37.4206 29.32ZM57.0109 40.44C55.2243 40.44 53.6376 40.08 52.2509 39.36C50.8909 38.6133 49.8243 37.6 49.0509 36.32C48.2776 35.0133 47.8909 33.52 47.8909 31.84V20.56H54.0109V31.76C54.0109 32.4267 54.1176 33 54.3309 33.48C54.5709 33.96 54.9176 34.3333 55.3709 34.6C55.8243 34.8667 56.3709 35 57.0109 35C57.9176 35 58.6376 34.72 59.1709 34.16C59.7043 33.5733 59.9709 32.7733 59.9709 31.76V20.56H66.0909V31.8C66.0909 33.5067 65.7043 35.0133 64.9309 36.32C64.1576 37.6 63.0909 38.6133 61.7309 39.36C60.3709 40.08 58.7976 40.44 57.0109 40.44ZM82.7734 40V28.92C82.7734 27.9067 82.4534 27.0933 81.8134 26.48C81.2001 25.84 80.4134 25.52 79.4534 25.52C78.7868 25.52 78.2001 25.6667 77.6934 25.96C77.1868 26.2267 76.7868 26.6267 76.4934 27.16C76.2001 27.6667 76.0534 28.2533 76.0534 28.92L73.6934 27.76C73.6934 26.24 74.0268 24.9067 74.6934 23.76C75.3601 22.6133 76.2801 21.7333 77.4534 21.12C78.6534 20.48 80.0001 20.16 81.4934 20.16C82.9334 20.16 84.2001 20.5067 85.2934 21.2C86.4134 21.8667 87.2934 22.76 87.9334 23.88C88.5734 25 88.8934 26.2267 88.8934 27.56V40H82.7734ZM69.9334 40V20.56H76.0534V40H69.9334ZM100.944 40.4C99.1574 40.4 97.5574 39.96 96.1441 39.08C94.7574 38.2 93.6507 37 92.8241 35.48C92.0241 33.96 91.6241 32.2267 91.6241 30.28C91.6241 28.3333 92.0241 26.6 92.8241 25.08C93.6507 23.56 94.7574 22.36 96.1441 21.48C97.5574 20.6 99.1574 20.16 100.944 20.16C102.251 20.16 103.424 20.4133 104.464 20.92C105.531 21.4267 106.397 22.1333 107.064 23.04C107.731 23.92 108.104 24.9333 108.184 26.08V34.48C108.104 35.6267 107.731 36.6533 107.064 37.56C106.424 38.44 105.571 39.1333 104.504 39.64C103.437 40.1467 102.251 40.4 100.944 40.4ZM102.184 34.88C103.491 34.88 104.544 34.4533 105.344 33.6C106.144 32.72 106.544 31.6133 106.544 30.28C106.544 29.3733 106.357 28.5733 105.984 27.88C105.637 27.1867 105.131 26.6533 104.464 26.28C103.824 25.88 103.077 25.68 102.224 25.68C101.371 25.68 100.611 25.88 99.9441 26.28C99.3041 26.6533 98.7841 27.1867 98.3841 27.88C98.0107 28.5733 97.8241 29.3733 97.8241 30.28C97.8241 31.16 98.0107 31.9467 98.3841 32.64C98.7574 33.3333 99.2774 33.88 99.9441 34.28C100.611 34.68 101.357 34.88 102.184 34.88ZM106.304 40V34.76L107.224 30.04L106.304 25.32V20.56H112.304V40H106.304Z" fill="#252B42"/>
<circle cx="76" cy="14" r="4" fill="#06A956"/>
<circle cx="88" cy="8" r="3" fill="#06A956"/>
</svg>
