<svg width="32" height="32" viewBox="0 0 32 32" fill="none" xmlns="http://www.w3.org/2000/svg">
<path d="M16 15.5892C14.7167 15.5892 13.6181 15.1323 12.7043 14.2185C11.7903 13.3045 11.3333 12.2059 11.3333 10.9225C11.3333 9.63919 11.7903 8.54064 12.7043 7.62686C13.6181 6.71286 14.7167 6.25586 16 6.25586C17.2833 6.25586 18.3819 6.71286 19.2957 7.62686C20.2097 8.54064 20.6667 9.63919 20.6667 10.9225C20.6667 12.2059 20.2097 13.3045 19.2957 14.2185C18.3819 15.1323 17.2833 15.5892 16 15.5892ZM6 23.7175V22.7789C6 22.126 6.17733 21.5213 6.532 20.9649C6.88667 20.4084 7.36067 19.9806 7.954 19.6815C9.27178 19.0355 10.6012 18.551 11.9423 18.2279C13.2834 17.9047 14.636 17.7432 16 17.7432C17.364 17.7432 18.7166 17.9047 20.0577 18.2279C21.3988 18.551 22.7282 19.0355 24.046 19.6815C24.6393 19.9806 25.1133 20.4084 25.468 20.9649C25.8227 21.5213 26 22.126 26 22.7789V23.7175C26 24.2797 25.803 24.758 25.409 25.1522C25.015 25.5462 24.5368 25.7432 23.9743 25.7432H8.02567C7.46322 25.7432 6.985 25.5462 6.591 25.1522C6.197 24.758 6 24.2797 6 23.7175ZM8 23.7432H24V22.7789C24 22.5089 23.9218 22.2589 23.7653 22.0289C23.6089 21.7991 23.3966 21.6115 23.1283 21.4662C21.9794 20.9004 20.8081 20.4717 19.6143 20.1802C18.4203 19.8889 17.2156 19.7432 16 19.7432C14.7844 19.7432 13.5797 19.8889 12.3857 20.1802C11.1919 20.4717 10.0206 20.9004 8.87167 21.4662C8.60344 21.6115 8.39111 21.7991 8.23467 22.0289C8.07822 22.2589 8 22.5089 8 22.7789V23.7432ZM16 13.5892C16.7333 13.5892 17.3611 13.3281 17.8833 12.8059C18.4056 12.2836 18.6667 11.6559 18.6667 10.9225C18.6667 10.1892 18.4056 9.56142 17.8833 9.03919C17.3611 8.51697 16.7333 8.25586 16 8.25586C15.2667 8.25586 14.6389 8.51697 14.1167 9.03919C13.5944 9.56142 13.3333 10.1892 13.3333 10.9225C13.3333 11.6559 13.5944 12.2836 14.1167 12.8059C14.6389 13.3281 15.2667 13.5892 16 13.5892Z" fill="white"/>
</svg>
