<svg width="32" height="32" viewBox="0 0 32 32" fill="none" xmlns="http://www.w3.org/2000/svg">
<path d="M25.9197 27.3327C23.407 27.3327 20.8827 26.7485 18.3467 25.58C15.8109 24.4116 13.481 22.7633 11.357 20.6353C9.23324 18.5071 7.58713 16.1771 6.41868 13.6453C5.25024 11.1138 4.66602 8.59168 4.66602 6.07902C4.66602 5.67524 4.79935 5.33879 5.06602 5.06968C5.33268 4.80057 5.66602 4.66602 6.06602 4.66602H10.4147C10.7513 4.66602 11.0483 4.7759 11.3057 4.99568C11.563 5.21524 11.7267 5.48657 11.7967 5.80968L12.561 9.73268C12.6139 10.0967 12.6028 10.4095 12.5277 10.671C12.4523 10.9326 12.3172 11.1522 12.1223 11.33L9.04302 14.3277C9.53857 15.2352 10.1048 16.0938 10.7417 16.9033C11.3783 17.7127 12.0677 18.4857 12.8097 19.2223C13.5412 19.9541 14.319 20.6337 15.143 21.261C15.967 21.8883 16.8568 22.4721 17.8123 23.0123L20.8043 19.9943C21.013 19.7772 21.2657 19.625 21.5623 19.5377C21.8588 19.4506 22.1669 19.4292 22.4867 19.4737L26.189 20.2277C26.5257 20.3166 26.8005 20.4883 27.0133 20.743C27.2262 20.9977 27.3327 21.2866 27.3327 21.6097V25.9327C27.3327 26.3327 27.1981 26.666 26.929 26.9327C26.6599 27.1993 26.3235 27.3327 25.9197 27.3327ZM8.09668 12.4353L10.4763 10.1583C10.519 10.1241 10.5468 10.0771 10.5597 10.0173C10.5726 9.95757 10.5705 9.90201 10.5533 9.85068L9.97368 6.87102C9.95657 6.80279 9.92668 6.75157 9.88402 6.71735C9.84135 6.68313 9.78579 6.66602 9.71735 6.66602H6.86602C6.81468 6.66602 6.7719 6.68313 6.73768 6.71735C6.70368 6.75157 6.68668 6.79435 6.68668 6.84568C6.7549 7.75679 6.90402 8.68235 7.13402 9.62235C7.36379 10.5626 7.68468 11.5002 8.09668 12.4353ZM19.6967 23.9583C20.5805 24.3703 21.5022 24.6853 22.462 24.9033C23.422 25.1211 24.319 25.2506 25.153 25.2917C25.2043 25.2917 25.2471 25.2746 25.2813 25.2403C25.3156 25.2061 25.3327 25.1633 25.3327 25.112V22.307C25.3327 22.2386 25.3156 22.183 25.2813 22.1403C25.2471 22.0977 25.1959 22.0678 25.1277 22.0507L22.3277 21.4813C22.2763 21.4642 22.2315 21.4621 22.193 21.475C22.1546 21.4879 22.1139 21.5157 22.071 21.5583L19.6967 23.9583Z" fill="white"/>
</svg>
