<svg width="32" height="32" viewBox="0 0 32 32" fill="none" xmlns="http://www.w3.org/2000/svg">
<path d="M7.077 24.8077C6.77189 24.8077 6.51611 24.7058 6.30967 24.502C6.10322 24.2982 6 24.0457 6 23.7444C6 23.443 6.10322 23.188 6.30967 22.9794C6.51611 22.7709 6.77189 22.6667 7.077 22.6667H17C17.2833 22.6667 17.5208 22.7638 17.7123 22.958C17.9041 23.152 18 23.3925 18 23.6794C18 23.9627 17.9042 24.2002 17.7127 24.392C17.5213 24.5836 17.288 24.6794 17.0127 24.6794L7.077 24.8077ZM7 19.5514C6.71667 19.5514 6.47922 19.4555 6.28767 19.2637C6.09589 19.0719 6 18.8342 6 18.5507C6 18.2674 6.09589 18.0299 6.28767 17.8384C6.47922 17.647 6.71667 17.5514 7 17.5514H25C25.2833 17.5514 25.5208 17.6472 25.7123 17.839C25.9041 18.0308 26 18.2684 26 18.5517C26 18.8352 25.9041 19.0727 25.7123 19.264C25.5208 19.4556 25.2833 19.5514 25 19.5514H7ZM7 14.4487C6.71667 14.4487 6.47922 14.3528 6.28767 14.161C6.09589 13.9692 6 13.7317 6 13.4484C6 13.1648 6.09589 12.9274 6.28767 12.736C6.47922 12.5445 6.71667 12.4487 7 12.4487H25C25.2833 12.4487 25.5208 12.5446 25.7123 12.7364C25.9041 12.9281 26 13.1658 26 13.4494C26 13.7327 25.9041 13.9701 25.7123 14.1617C25.5208 14.353 25.2833 14.4487 25 14.4487H7ZM7.077 9.33335C6.77189 9.33335 6.51611 9.23013 6.30967 9.02369C6.10322 8.81724 6 8.56146 6 8.25635C6 7.95124 6.10322 7.69546 6.30967 7.48902C6.51611 7.2828 6.77189 7.17969 7.077 7.17969H24.923C25.2281 7.17969 25.4839 7.2828 25.6903 7.48902C25.8968 7.69546 26 7.95124 26 8.25635C26 8.56146 25.8968 8.81724 25.6903 9.02369C25.4839 9.23013 25.2281 9.33335 24.923 9.33335H7.077Z" fill="white"/>
</svg>
