<svg width="163" height="98" viewBox="0 0 163 98" fill="none" xmlns="http://www.w3.org/2000/svg">
<rect width="163" height="98" rx="12" fill="white"/>
<path d="M24.6 64L35.8 35.76H41.48L52.56 64H45.92L37.44 40.56H39.72L31.12 64H24.6ZM30.96 58.88V53.76H46.36V58.88H30.96ZM55.3006 64V44.56H61.4206V64H55.3006ZM61.4206 53.32L58.8606 51.32C59.3673 49.0533 60.2206 47.2933 61.4206 46.04C62.6206 44.7867 64.2873 44.16 66.4206 44.16C67.354 44.16 68.1673 44.3067 68.8606 44.6C69.5806 44.8667 70.2073 45.2933 70.7406 45.88L67.1006 50.48C66.834 50.1867 66.5006 49.96 66.1006 49.8C65.7006 49.64 65.2473 49.56 64.7406 49.56C63.7273 49.56 62.914 49.88 62.3006 50.52C61.714 51.1333 61.4206 52.0667 61.4206 53.32ZM81.0109 64.44C79.2243 64.44 77.6376 64.08 76.2509 63.36C74.8909 62.6133 73.8243 61.6 73.0509 60.32C72.2776 59.0133 71.8909 57.52 71.8909 55.84V44.56H78.0109V55.76C78.0109 56.4267 78.1176 57 78.3309 57.48C78.5709 57.96 78.9176 58.3333 79.3709 58.6C79.8243 58.8667 80.3709 59 81.0109 59C81.9176 59 82.6376 58.72 83.1709 58.16C83.7043 57.5733 83.9709 56.7733 83.9709 55.76V44.56H90.0909V55.8C90.0909 57.5067 89.7043 59.0133 88.9309 60.32C88.1576 61.6 87.0909 62.6133 85.7309 63.36C84.3709 64.08 82.7976 64.44 81.0109 64.44ZM106.773 64V52.92C106.773 51.9067 106.453 51.0933 105.813 50.48C105.2 49.84 104.413 49.52 103.453 49.52C102.787 49.52 102.2 49.6667 101.693 49.96C101.187 50.2267 100.787 50.6267 100.493 51.16C100.2 51.6667 100.053 52.2533 100.053 52.92L97.6934 51.76C97.6934 50.24 98.0268 48.9067 98.6934 47.76C99.3601 46.6133 100.28 45.7333 101.453 45.12C102.653 44.48 104 44.16 105.493 44.16C106.933 44.16 108.2 44.5067 109.293 45.2C110.413 45.8667 111.293 46.76 111.933 47.88C112.573 49 112.893 50.2267 112.893 51.56V64H106.773ZM93.9334 64V44.56H100.053V64H93.9334ZM124.944 64.4C123.157 64.4 121.557 63.96 120.144 63.08C118.757 62.2 117.651 61 116.824 59.48C116.024 57.96 115.624 56.2267 115.624 54.28C115.624 52.3333 116.024 50.6 116.824 49.08C117.651 47.56 118.757 46.36 120.144 45.48C121.557 44.6 123.157 44.16 124.944 44.16C126.251 44.16 127.424 44.4133 128.464 44.92C129.531 45.4267 130.397 46.1333 131.064 47.04C131.731 47.92 132.104 48.9333 132.184 50.08V58.48C132.104 59.6267 131.731 60.6533 131.064 61.56C130.424 62.44 129.571 63.1333 128.504 63.64C127.437 64.1467 126.251 64.4 124.944 64.4ZM126.184 58.88C127.491 58.88 128.544 58.4533 129.344 57.6C130.144 56.72 130.544 55.6133 130.544 54.28C130.544 53.3733 130.357 52.5733 129.984 51.88C129.637 51.1867 129.131 50.6533 128.464 50.28C127.824 49.88 127.077 49.68 126.224 49.68C125.371 49.68 124.611 49.88 123.944 50.28C123.304 50.6533 122.784 51.1867 122.384 51.88C122.011 52.5733 121.824 53.3733 121.824 54.28C121.824 55.16 122.011 55.9467 122.384 56.64C122.757 57.3333 123.277 57.88 123.944 58.28C124.611 58.68 125.357 58.88 126.184 58.88ZM130.304 64V58.76L131.224 54.04L130.304 49.32V44.56H136.304V64H130.304Z" fill="#252B42"/>
<circle cx="100" cy="38" r="4" fill="#06A956"/>
<circle cx="112" cy="32" r="3" fill="#06A956"/>
</svg>
